HIERARCHY
ROOT Hips
{
	OFFSET 0.000000 0.000000 0.000000
	CHANNELS 6 Xposition Yposition Zposition Zrotation Yrotation Xrotation 
	JOINT LHipJoint
	{
		OFFSET 0.000000 0.000000 0.000000
		CHANNELS 3 Zrotation Yrotation Xrotation
		JOINT LeftUpLeg
		{
			OFFSET 1.363060 -1.794630 0.839290
			CHANNELS 3 Zrotation Yrotation Xrotation
			JOINT LeftLeg
			{
				OFFSET 2.448110 -6.726130 0.000000
				CHANNELS 3 Zrotation Yrotation Xrotation
				JOINT LeftFoot
				{
					OFFSET 2.562200 -7.039590 0.000000
					CHANNELS 3 Zrotation Yrotation Xrotation
					JOINT LeftToeBase
					{
						OFFSET 0.157640 -0.433110 2.322550
						CHANNELS 3 Zrotation Yrotation Xrotation
						End Site
						{
							OFFSET 0.000000 0.000000 0.000000
						}
					}
				}
			}
		}
	}
	JOINT RHipJoint
	{
		OFFSET 0.000000 0.000000 0.000000
		CHANNELS 3 Zrotation Yrotation Xrotation
		JOINT RightUpLeg
		{
			OFFSET -1.305520 -1.794630 0.839290
			CHANNELS 3 Zrotation Yrotation Xrotation
			JOINT RightLeg
			{
				OFFSET -2.542530 -6.985550 0.000000
				CHANNELS 3 Zrotation Yrotation Xrotation
				JOINT RightFoot
				{
					OFFSET -2.568260 -7.056230 0.000000
					CHANNELS 3 Zrotation Yrotation Xrotation
					JOINT RightToeBase
					{
						OFFSET -0.164730 -0.452590 2.363150
						CHANNELS 3 Zrotation Yrotation Xrotation
						End Site
						{
							OFFSET 0.000000 0.000000 0.000000
						}
					}
				}
			}
		}
	}
}
MOTION
Frames: 34
Frame Time: 0.008333
1.328358 17.293970 1.209305 8.079908 -51.993611 5.887900 -8.377878 2.500767 8.348475 -6.032967 -18.268616 -13.896715 -2.591082 -1.641447 -3.508199 0.167031 4.056067 6.431957 1.500900 0.000000 -47.144800 12.046676 -2.668227 -1.280890 -0.013122 -27.865955 -2.760996 1.330286 1.217834 -4.007686 -3.256200 -21.061228 5.721535 -6.207500 -0.000000 -68.758800
1.319380 17.294770 1.210210 8.058167 -52.371708 5.778059 -8.402516 2.531248 8.270977 -6.088727 -17.975810 -13.551377 -2.582254 -1.647660 -3.728481 0.178498 4.141654 6.429470 1.518000 -0.000000 -47.091300 12.034598 -2.673366 -1.244998 -0.052871 -27.519283 -2.537518 1.293097 1.221111 -4.090281 -3.265676 -21.140870 5.779530 -6.259800 0.000000 -68.760500
1.311359 17.296021 1.211642 8.027027 -52.822362 5.657505 -8.433423 2.566148 8.180081 -6.155972 -17.604019 -13.182436 -2.573434 -1.654496 -3.954633 0.188600 4.218503 6.426027 1.532600 0.000000 -47.048299 12.018709 -2.681018 -1.201701 -0.089997 -27.141097 -2.334835 1.256465 1.221382 -4.130724 -3.272526 -21.199433 5.830975 -6.303500 -0.000001 -68.771401
1.304076 17.297539 1.213490 7.988426 -53.347057 5.524905 -8.469002 2.607255 8.081699 -6.232410 -17.158043 -12.797884 -2.564412 -1.661726 -4.183452 0.197814 4.288195 6.418824 1.544800 0.000000 -47.016100 11.999671 -2.690697 -1.149172 -0.123063 -26.744164 -2.158097 1.221922 1.220277 -4.133590 -3.275739 -21.231891 5.871128 -6.335000 -0.000000 -68.788500
1.297234 17.299120 1.215655 7.946070 -53.936367 5.383641 -8.507923 2.653487 7.981462 -6.313107 -16.654854 -12.410686 -2.555002 -1.669568 -4.410145 0.206991 4.356332 6.403756 1.555800 -0.000001 -46.990700 11.977838 -2.702054 -1.087224 -0.149211 -26.341037 -2.014312 1.190878 1.218892 -4.105254 -3.275306 -21.237069 5.894433 -6.351700 -0.000000 -68.803500
1.290563 17.300527 1.217857 7.906370 -54.574634 5.227491 -8.548796 2.702904 7.878790 -6.402092 -16.095065 -12.021300 -2.546979 -1.678132 -4.630872 0.214484 4.411993 6.382819 1.563100 -0.000001 -46.981400 11.955369 -2.715550 -1.019287 -0.174637 -25.953541 -1.897200 1.164495 1.217006 -4.054166 -3.269859 -21.207769 5.901081 -6.350600 0.000000 -68.824100
1.283772 17.301540 1.219943 7.875443 -55.243306 5.057178 -8.589124 2.749610 7.771557 -6.506158 -15.501975 -11.794451 -2.533652 -1.668972 -4.516641 0.208261 4.451114 6.171784 1.567100 -0.000001 -46.987500 11.933355 -2.730615 -0.947343 -0.200644 -25.596522 -1.807633 1.143576 1.215323 -3.988572 -3.259266 -21.143457 5.888667 -6.330700 0.000000 -68.851200
1.276448 17.302025 1.222055 7.853322 -55.919642 4.891354 -8.627855 2.793805 7.670699 -6.607430 -14.906429 -11.636216 -2.520093 -1.657253 -4.307598 0.198825 4.489723 5.904724 1.570600 -0.000000 -46.996600 11.912187 -2.747665 -0.870382 -0.216595 -25.271569 -1.757571 1.128563 1.215236 -3.919721 -3.246405 -21.058050 5.852485 -6.295000 0.000001 -68.865300
1.268241 17.301852 1.224042 7.846512 -56.585959 4.727987 -8.663580 2.836230 7.579080 -6.705489 -14.316921 -11.492903 -2.509906 -1.649755 -4.119457 0.189814 4.524641 5.649340 1.572700 0.000000 -47.012000 11.893862 -2.766496 -0.791440 -0.227279 -24.992479 -1.739934 1.119652 1.217133 -3.857793 -3.230866 -20.951243 5.795432 -6.244400 -0.000001 -68.868500
1.259120 17.300933 1.225871 7.854327 -57.227878 4.570337 -8.694775 2.877019 7.500335 -6.798905 -13.751444 -11.369447 -2.502989 -1.646453 -3.954464 0.181800 4.557583 5.407650 1.573800 0.000001 -47.031100 11.879199 -2.786365 -0.711622 -0.232660 -24.765085 -1.751544 1.116720 1.222183 -3.813185 -3.213153 -20.828568 5.720222 -6.181999 0.000000 -68.858000
1.248811 17.299247 1.227564 7.880018 -57.834757 4.422113 -8.720157 2.917259 7.437932 -6.886456 -13.225282 -11.270103 -2.499097 -1.647264 -3.814390 0.175337 4.591112 5.180903 1.574600 0.000000 -47.050300 11.868997 -2.806573 -0.631106 -0.232587 -24.591136 -1.788607 1.119301 1.231772 -3.796246 -3.193886 -20.696704 5.630810 -6.111800 0.000000 -68.834700
1.237447 17.296817 1.229107 7.922851 -58.399388 4.283203 -8.739047 2.957578 7.393404 -6.968362 -12.750441 -11.195050 -2.497758 -1.651537 -3.698641 0.170901 4.626776 4.968213 1.575400 -0.000000 -47.066800 11.863393 -2.825962 -0.551714 -0.228777 -24.472570 -1.843318 1.126943 1.246691 -3.814877 -3.173055 -20.558951 5.531966 -6.036600 0.000001 -68.790500
1.225065 17.293683 1.230468 7.987798 -58.921948 4.145747 -8.751129 2.999018 7.365641 -7.049394 -12.327378 -11.142552 -2.498814 -1.658066 -3.599325 0.167630 4.664513 4.766587 1.576700 0.000000 -47.081599 11.862926 -2.843424 -0.474712 -0.227634 -24.408245 -1.905678 1.138641 1.267144 -3.874339 -3.150164 -20.415857 5.430649 -5.959300 -0.000000 -68.735600
1.211857 17.289935 1.231700 8.074580 -59.404319 4.008335 -8.756651 3.042169 7.354192 -7.130922 -11.959016 -11.111836 -2.501616 -1.665994 -3.512024 0.165789 4.707052 4.573317 1.579300 0.000000 -47.090900 11.867172 -2.858210 -0.400384 -0.230913 -24.391522 -1.969320 1.153478 1.293350 -3.978269 -3.125405 -20.270946 5.332676 -5.883200 -0.000000 -68.676000
1.198268 17.285721 1.232809 8.180178 -59.849576 3.866737 -8.757026 3.086657 7.355506 -7.212467 -11.643319 -11.094257 -2.505225 -1.674100 -3.433764 0.165441 4.754934 4.386007 1.582900 0.000000 -47.093600 11.874868 -2.869632 -0.331785 -0.241249 -24.418100 -2.021762 1.170828 1.324665 -4.128161 -3.098211 -20.123253 5.243838 -5.809800 0.000000 -68.595099
1.184316 17.281148 1.233818 8.311459 -60.268500 3.712842 -8.752819 3.132952 7.366850 -7.300045 -11.370513 -11.090260 -2.509584 -1.681523 -3.353205 0.165588 4.810069 4.199834 1.589000 -0.000000 -47.088900 11.886000 -2.877551 -0.266637 -0.263545 -24.473238 -2.060586 1.189131 1.360505 -4.321626 -3.068800 -19.974246 5.169039 -5.741600 0.000000 -68.515900
1.170583 17.276378 1.234721 8.464870 -60.668964 3.540221 -8.746456 3.179800 7.381691 -7.394105 -11.128805 -11.088191 -2.513907 -1.687000 -3.265934 0.165703 4.870674 4.011965 1.596800 0.000000 -47.078001 11.898805 -2.881876 -0.208276 -0.301531 -24.549721 -2.072778 1.207696 1.399220 -4.555045 -3.036358 -19.820292 5.113726 -5.678700 -0.000000 -68.432000
1.157460 17.271577 1.235533 8.639336 -61.061243 3.344510 -8.739877 3.226252 7.395021 -7.496335 -10.904185 -11.083524 -2.517920 -1.689904 -3.167088 0.165259 4.935251 3.820465 1.606100 -0.000000 -47.061100 11.911981 -2.882945 -0.156136 -0.357008 -24.632788 -2.055032 1.225466 1.439450 -4.822408 -3.000966 -19.660825 5.080719 -5.622000 -0.000000 -68.348700
1.145012 17.266848 1.236207 8.841950 -61.457188 3.116960 -8.733969 3.271536 7.403346 -7.611061 -10.687643 -11.075681 -2.521345 -1.689642 -3.046085 0.163575 5.009911 3.620342 1.619000 -0.000000 -47.039000 11.925178 -2.880987 -0.108383 -0.434687 -24.706895 -2.007382 1.241102 1.479841 -5.116345 -2.962792 -19.494413 5.070698 -5.571200 0.000000 -68.276900
1.133647 17.262310 1.236881 9.063025 -61.861846 2.863806 -8.731694 3.314361 7.401069 -7.734578 -10.458245 -11.057171 -2.524578 -1.686739 -2.913905 0.160404 5.080940 3.417688 1.631400 0.000001 -47.012600 11.936238 -2.877380 -0.064697 -0.529204 -24.759415 -1.928817 1.254312 1.519078 -5.429894 -2.922316 -19.322401 5.084808 -5.527000 0.000001 -68.214900
1.123377 17.258042 1.237436 9.310107 -62.283566 2.576650 -8.733161 3.353809 7.386220 -7.870371 -10.213144 -11.029230 -2.527270 -1.680759 -2.760036 0.155346 5.157561 3.207260 1.646300 0.000000 -46.982900 11.945285 -2.872215 -0.023675 -0.645238 -24.779349 -1.821519 1.264143 1.555862 -5.754961 -2.879523 -19.141491 5.121101 -5.487400 0.000000 -68.172000
1.114403 17.254028 1.237790 9.582384 -62.720069 2.250357 -8.738551 3.387751 7.357142 -8.018509 -9.948599 -10.987764 -2.529592 -1.672035 -2.579430 0.147483 5.241787 2.987397 1.664500 0.000001 -46.951200 11.948550 -2.856456 0.009821 -0.782864 -24.755109 -1.799864 1.267438 1.570312 -5.823471 -2.793267 -18.943176 5.025066 -5.450300 0.000000 -68.152300
1.106499 17.250317 1.238188 9.869983 -63.165845 1.903664 -8.748770 3.415940 7.315752 -8.172118 -9.652262 -10.936784 -2.533163 -1.663511 -2.396842 0.137911 5.316969 2.772303 1.680801 0.000000 -46.917001 11.943496 -2.827356 0.039533 -0.927293 -24.670267 -1.937082 1.262694 1.553968 -5.500975 -2.647221 -18.734865 4.716110 -5.417200 0.000000 -68.152600
1.099679 17.246894 1.238637 10.170311 -63.626502 1.546700 -8.764174 3.439896 7.262702 -8.328614 -9.323210 -10.883457 -2.537759 -1.655364 -2.223539 0.127716 5.381221 2.567586 1.693900 -0.000000 -46.881099 11.935329 -2.799646 0.074546 -1.075004 -24.532133 -2.069699 1.254596 1.535333 -5.179476 -2.504637 -18.525560 4.422398 -5.387999 0.000000 -68.172600
1.093786 17.243635 1.238902 10.494450 -64.100518 1.167032 -8.782911 3.459172 7.198959 -8.490627 -8.977145 -10.827417 -2.542359 -1.646486 -2.044128 0.116796 5.450728 2.362799 1.708800 0.000001 -46.843100 11.925561 -2.772424 0.111369 -1.233923 -24.352193 -2.190917 1.243673 1.514131 -4.861278 -2.365112 -18.304997 4.144132 -5.358001 -0.000000 -68.215399
1.088621 17.240481 1.239084 10.835304 -64.580117 0.779232 -8.804329 3.474561 7.128700 -8.652915 -8.617210 -10.774821 -2.547654 -1.638555 -1.875105 0.106218 5.518869 2.167446 1.722900 -0.000000 -46.802100 11.914404 -2.746422 0.152743 -1.394426 -24.133034 -2.312359 1.230905 1.491744 -4.549024 -2.230022 -18.079347 3.878704 -5.327800 0.000000 -68.274000
1.084092 17.237369 1.239139 11.189058 -65.058094 0.391099 -8.827150 3.486583 7.055984 -8.812890 -8.253368 -10.730183 -2.553789 -1.632426 -1.723457 0.097007 5.585850 1.984124 1.735900 -0.000000 -46.757800 11.902426 -2.721517 0.198955 -1.551696 -23.883383 -2.441374 1.217297 1.469098 -4.243414 -2.099778 -17.850887 3.622406 -5.297100 0.000000 -68.346699
1.079966 17.234218 1.239043 11.553336 -65.527648 0.009231 -8.850127 3.496051 6.984651 -8.968522 -7.895038 -10.697848 -2.560846 -1.628661 -1.593696 0.089484 5.652243 1.814749 1.747800 -0.000000 -46.708700 11.890288 -2.697340 0.249784 -1.702201 -23.614032 -2.584793 1.203893 1.447052 -3.944322 -1.974094 -17.620947 3.371404 -5.265400 0.000000 -68.423700
1.076140 17.230975 1.238722 11.930932 -65.983884 -0.368475 -8.871809 3.503483 6.917274 -9.120532 -7.553862 -10.679294 -2.568531 -1.626970 -1.481977 0.083936 5.723310 1.656806 1.760100 0.000000 -46.652600 11.878899 -2.672841 0.302843 -1.847194 -23.339444 -2.744333 1.191566 1.425905 -3.650260 -1.851913 -17.387026 3.121981 -5.231300 0.000000 -68.498600
1.072438 17.227657 1.238283 12.308586 -66.419849 -0.721748 -8.892048 3.509865 6.858166 -9.263104 -7.232063 -10.680797 -2.577455 -1.628959 -1.403740 0.081277 5.789737 1.518168 1.769800 0.000000 -46.591600 11.867867 -2.648677 0.360218 -1.974903 -23.065642 -2.933145 1.181467 1.406954 -3.360939 -1.733827 -17.158211 2.870795 -5.197600 -0.000000 -68.566300
1.068969 17.224214 1.237656 12.687041 -66.833930 -1.056106 -8.910077 3.515304 6.807578 -9.398160 -6.936620 -10.701132 -2.587034 -1.633570 -1.348764 0.081055 5.856976 1.393521 1.778699 -0.000000 -46.524099 11.857678 -2.623678 0.418296 -2.088922 -22.806767 -3.148249 1.174268 1.389963 -3.074856 -1.618533 -16.929999 2.616663 -5.162700 0.000000 -68.621700
1.065716 17.220699 1.236860 13.061553 -67.224614 -1.367720 -8.925974 3.519939 6.765729 -9.523945 -6.669401 -10.739841 -2.596941 -1.640485 -1.313979 0.082920 5.924412 1.280732 1.786900 0.000000 -46.452000 11.848158 -2.597668 0.474995 -2.187400 -22.572504 -3.389462 1.170724 1.374907 -2.791108 -1.505535 -16.702097 2.359837 -5.126800 0.000000 -68.665000
1.062710 17.217111 1.235838 13.438833 -67.595157 -1.665380 -8.939372 3.524134 6.731784 -9.645466 -6.427231 -10.797802 -2.607490 -1.649138 -1.292295 0.086030 5.992215 1.177378 1.795100 0.000000 -46.372700 11.839788 -2.569950 0.530012 -2.273985 -22.365444 -3.655702 1.170614 1.361930 -2.511141 -1.395351 -16.473800 2.099891 -5.089200 0.000001 -68.684200
1.060139 17.213560 1.234662 13.805649 -67.945442 -1.941676 -8.951642 3.527304 6.703407 -9.756973 -6.207547 -10.869864 -2.617662 -1.658617 -1.278085 0.089752 6.058764 1.079913 1.803101 0.000000 -46.292599 11.831382 -2.541125 0.579534 -2.345220 -22.194367 -3.940306 1.174917 1.350215 -2.234145 -1.287117 -16.242333 1.842695 -5.050200 0.000001 -68.695000
